<svg xmlns="http://www.w3.org/2000/svg" xmlns:xlink="http://www.w3.org/1999/xlink" width="110" zoomAndPan="magnify" viewBox="0 0 82.5 30.000001" height="40" preserveAspectRatio="xMidYMid meet" version="1.0"><defs><g/><clipPath id="dffaaf4fb8"><path d="M 3.058594 2.59375 L 79.730469 2.59375 L 79.730469 26.691406 L 3.058594 26.691406 Z M 3.058594 2.59375 " clip-rule="nonzero"/></clipPath></defs><g clip-path="url(#dffaaf4fb8)"><path fill="#ff5400" d="M 60.5625 2.59375 C 71.144531 2.59375 79.726562 7.988281 79.726562 14.640625 C 79.726562 21.296875 71.144531 26.691406 60.5625 26.691406 L 22.230469 26.691406 C 11.644531 26.691406 3.066406 21.296875 3.066406 14.640625 C 3.066406 7.988281 11.644531 2.59375 22.230469 2.59375 L 60.5625 2.59375 " fill-opacity="1" fill-rule="nonzero"/></g><g fill="#ffffff" fill-opacity="1"><g transform="translate(13.891869, 18.058355)"><g><path d="M 6.796875 0 L 4.65625 -3.234375 L 3.3125 -3.234375 L 3.3125 0 L 1.3125 0 L 1.3125 -10.171875 L 4.390625 -10.171875 C 5.648438 -10.171875 6.628906 -9.863281 7.328125 -9.25 C 8.023438 -8.632812 8.375 -7.796875 8.375 -6.734375 C 8.375 -6.109375 8.238281 -5.519531 7.96875 -4.96875 C 7.707031 -4.425781 7.304688 -4 6.765625 -3.6875 L 9.125 0 Z M 3.3125 -5.171875 L 4.734375 -5.171875 C 5.273438 -5.171875 5.671875 -5.328125 5.921875 -5.640625 C 6.171875 -5.960938 6.296875 -6.304688 6.296875 -6.671875 C 6.296875 -7.035156 6.1875 -7.382812 5.96875 -7.71875 C 5.757812 -8.0625 5.351562 -8.234375 4.75 -8.234375 L 3.3125 -8.234375 Z M 3.3125 -5.171875 "/></g></g></g><g fill="#ffffff" fill-opacity="1"><g transform="translate(23.370261, 18.058355)"><g><path d="M 4 -1.484375 C 4.382812 -1.484375 4.785156 -1.613281 5.203125 -1.875 L 6.0625 -0.4375 C 5.726562 -0.257812 5.378906 -0.113281 5.015625 0 C 4.648438 0.113281 4.300781 0.171875 3.96875 0.171875 C 3.25 0.171875 2.628906 0.0351562 2.109375 -0.234375 C 1.585938 -0.515625 1.191406 -0.898438 0.921875 -1.390625 C 0.660156 -1.878906 0.53125 -2.441406 0.53125 -3.078125 C 0.53125 -3.671875 0.679688 -4.210938 0.984375 -4.703125 C 1.296875 -5.203125 1.71875 -5.597656 2.25 -5.890625 C 2.78125 -6.179688 3.363281 -6.328125 4 -6.328125 C 4.863281 -6.328125 5.570312 -6.070312 6.125 -5.5625 C 6.6875 -5.0625 7.050781 -4.335938 7.21875 -3.390625 L 2.796875 -1.984375 C 3.097656 -1.648438 3.5 -1.484375 4 -1.484375 Z M 3.859375 -4.828125 C 3.421875 -4.828125 3.070312 -4.675781 2.8125 -4.375 C 2.5625 -4.082031 2.4375 -3.6875 2.4375 -3.1875 L 2.4375 -3.0625 L 5.078125 -3.96875 C 4.890625 -4.539062 4.484375 -4.828125 3.859375 -4.828125 Z M 3.859375 -4.828125 "/></g></g></g><g fill="#ffffff" fill-opacity="1"><g transform="translate(31.011008, 18.058355)"><g><path d="M 7.75 -6.03125 L 7.75 0 C 7.75 0.570312 7.582031 1.085938 7.25 1.546875 C 6.925781 2.015625 6.484375 2.378906 5.921875 2.640625 C 5.367188 2.898438 4.765625 3.03125 4.109375 3.03125 C 3.617188 3.03125 3.1875 2.96875 2.8125 2.84375 C 2.4375 2.726562 2.132812 2.597656 1.90625 2.453125 C 1.6875 2.304688 1.421875 2.101562 1.109375 1.84375 L 2.234375 0.53125 C 2.515625 0.78125 2.789062 0.976562 3.0625 1.125 C 3.332031 1.28125 3.675781 1.359375 4.09375 1.359375 C 4.582031 1.359375 4.988281 1.234375 5.3125 0.984375 C 5.644531 0.742188 5.8125 0.40625 5.8125 -0.03125 L 5.8125 -0.890625 C 5.625 -0.578125 5.335938 -0.320312 4.953125 -0.125 C 4.578125 0.0703125 4.113281 0.171875 3.5625 0.171875 C 3.019531 0.171875 2.515625 0.03125 2.046875 -0.25 C 1.585938 -0.53125 1.21875 -0.914062 0.9375 -1.40625 C 0.664062 -1.90625 0.53125 -2.453125 0.53125 -3.046875 C 0.53125 -3.660156 0.671875 -4.21875 0.953125 -4.71875 C 1.242188 -5.226562 1.625 -5.625 2.09375 -5.90625 C 2.570312 -6.195312 3.078125 -6.34375 3.609375 -6.34375 C 4.097656 -6.34375 4.535156 -6.269531 4.921875 -6.125 C 5.316406 -5.976562 5.613281 -5.789062 5.8125 -5.5625 L 5.96875 -6.03125 Z M 4.140625 -1.40625 C 4.910156 -1.40625 5.46875 -1.710938 5.8125 -2.328125 L 5.8125 -3.796875 C 5.6875 -4.085938 5.472656 -4.320312 5.171875 -4.5 C 4.867188 -4.675781 4.523438 -4.765625 4.140625 -4.765625 C 3.671875 -4.765625 3.273438 -4.609375 2.953125 -4.296875 C 2.628906 -3.984375 2.46875 -3.585938 2.46875 -3.109375 C 2.46875 -2.628906 2.628906 -2.222656 2.953125 -1.890625 C 3.273438 -1.566406 3.671875 -1.40625 4.140625 -1.40625 Z M 4.140625 -1.40625 "/></g></g></g><g fill="#ffffff" fill-opacity="1"><g transform="translate(39.757116, 18.058355)"><g><path d="M 2.921875 -6.03125 L 2.921875 0 L 1 0 L 1 -6.03125 Z M 0.59375 -8.453125 C 0.59375 -8.734375 0.703125 -8.96875 0.921875 -9.15625 C 1.140625 -9.34375 1.382812 -9.4375 1.65625 -9.4375 C 1.925781 -9.4375 2.164062 -9.34375 2.375 -9.15625 C 2.582031 -8.96875 2.6875 -8.734375 2.6875 -8.453125 C 2.6875 -8.171875 2.582031 -7.9375 2.375 -7.75 C 2.164062 -7.570312 1.925781 -7.484375 1.65625 -7.484375 C 1.382812 -7.484375 1.140625 -7.570312 0.921875 -7.75 C 0.703125 -7.9375 0.59375 -8.171875 0.59375 -8.453125 Z M 0.59375 -8.453125 "/></g></g></g><g fill="#ffffff" fill-opacity="1"><g transform="translate(43.681118, 18.058355)"><g><path d="M 2.953125 0.125 C 2.453125 0.125 1.984375 0.0351562 1.546875 -0.140625 C 1.117188 -0.316406 0.765625 -0.5625 0.484375 -0.875 L 1.28125 -1.9375 C 1.8125 -1.4375 2.316406 -1.1875 2.796875 -1.1875 C 3.035156 -1.1875 3.234375 -1.222656 3.390625 -1.296875 C 3.546875 -1.378906 3.625 -1.5 3.625 -1.65625 C 3.625 -1.84375 3.535156 -1.984375 3.359375 -2.078125 C 3.179688 -2.171875 2.984375 -2.25 2.765625 -2.3125 C 2.546875 -2.382812 2.398438 -2.425781 2.328125 -2.4375 C 1.804688 -2.601562 1.414062 -2.847656 1.15625 -3.171875 C 0.90625 -3.503906 0.78125 -3.882812 0.78125 -4.3125 C 0.78125 -4.632812 0.863281 -4.945312 1.03125 -5.25 C 1.195312 -5.5625 1.457031 -5.816406 1.8125 -6.015625 C 2.175781 -6.210938 2.625 -6.3125 3.15625 -6.3125 C 3.65625 -6.3125 4.078125 -6.257812 4.421875 -6.15625 C 4.773438 -6.0625 5.113281 -5.894531 5.4375 -5.65625 L 4.703125 -4.53125 C 4.523438 -4.675781 4.320312 -4.796875 4.09375 -4.890625 C 3.863281 -4.992188 3.660156 -5.046875 3.484375 -5.046875 C 3.265625 -5.046875 3.082031 -5 2.9375 -4.90625 C 2.800781 -4.8125 2.734375 -4.703125 2.734375 -4.578125 C 2.722656 -4.378906 2.800781 -4.226562 2.96875 -4.125 C 3.144531 -4.03125 3.410156 -3.9375 3.765625 -3.84375 C 3.828125 -3.820312 3.882812 -3.800781 3.9375 -3.78125 C 4 -3.757812 4.0625 -3.742188 4.125 -3.734375 C 5.070312 -3.421875 5.546875 -2.847656 5.546875 -2.015625 C 5.546875 -1.628906 5.445312 -1.273438 5.25 -0.953125 C 5.0625 -0.628906 4.769531 -0.367188 4.375 -0.171875 C 3.988281 0.0234375 3.515625 0.125 2.953125 0.125 Z M 2.953125 0.125 "/></g></g></g><g fill="#ffffff" fill-opacity="1"><g transform="translate(49.857272, 18.058355)"><g><path d="M 3.5 -8.6875 L 3.5 -6.0625 L 4.953125 -6.0625 L 4.953125 -4.5625 L 3.5 -4.5625 L 3.5 0 L 1.5625 0 L 1.5625 -4.5625 L 0.625 -4.5625 L 0.625 -6.0625 L 1.5625 -6.0625 L 1.5625 -8.6875 Z M 3.5 -8.6875 "/></g></g></g><g fill="#ffffff" fill-opacity="1"><g transform="translate(55.301129, 18.058355)"><g><path d="M 4 -1.484375 C 4.382812 -1.484375 4.785156 -1.613281 5.203125 -1.875 L 6.0625 -0.4375 C 5.726562 -0.257812 5.378906 -0.113281 5.015625 0 C 4.648438 0.113281 4.300781 0.171875 3.96875 0.171875 C 3.25 0.171875 2.628906 0.0351562 2.109375 -0.234375 C 1.585938 -0.515625 1.191406 -0.898438 0.921875 -1.390625 C 0.660156 -1.878906 0.53125 -2.441406 0.53125 -3.078125 C 0.53125 -3.671875 0.679688 -4.210938 0.984375 -4.703125 C 1.296875 -5.203125 1.71875 -5.597656 2.25 -5.890625 C 2.78125 -6.179688 3.363281 -6.328125 4 -6.328125 C 4.863281 -6.328125 5.570312 -6.070312 6.125 -5.5625 C 6.6875 -5.0625 7.050781 -4.335938 7.21875 -3.390625 L 2.796875 -1.984375 C 3.097656 -1.648438 3.5 -1.484375 4 -1.484375 Z M 3.859375 -4.828125 C 3.421875 -4.828125 3.070312 -4.675781 2.8125 -4.375 C 2.5625 -4.082031 2.4375 -3.6875 2.4375 -3.1875 L 2.4375 -3.0625 L 5.078125 -3.96875 C 4.890625 -4.539062 4.484375 -4.828125 3.859375 -4.828125 Z M 3.859375 -4.828125 "/></g></g></g><g fill="#ffffff" fill-opacity="1"><g transform="translate(62.941875, 18.058355)"><g><path d="M 2.890625 -4.65625 C 3.054688 -4.976562 3.28125 -5.265625 3.5625 -5.515625 C 3.851562 -5.773438 4.148438 -5.976562 4.453125 -6.125 C 4.765625 -6.269531 5.007812 -6.34375 5.1875 -6.34375 L 5.078125 -4.40625 C 5.023438 -4.414062 4.945312 -4.421875 4.84375 -4.421875 C 4.457031 -4.421875 4.117188 -4.316406 3.828125 -4.109375 C 3.535156 -3.910156 3.3125 -3.648438 3.15625 -3.328125 C 3 -3.015625 2.921875 -2.691406 2.921875 -2.359375 L 2.921875 0 L 1 0 L 1 -6.03125 L 2.734375 -6.03125 Z M 2.890625 -4.65625 "/></g></g></g></svg>